
<svg xmlns="http://www.w3.org/2000/svg" viewBox="0 0 44 44"><title>calendar@1x</title><g id="Layer_2" data-name="Layer 2"><g id="General"><g id="Calendar_2_2x.png" data-name="Calendar 2@2x.png"><path d="M27,34H23v4h4Zm0-7H23v4h4Zm0-7H23v4h4Zm6,7H29v4h4ZM21,20H17v4h4Zm18,7H35v4h4Zm0-7H35v4h4Zm-6,0H29v4h4ZM15,27H11v4h4ZM9,34H5v4H9Zm0-7H5v4H9Zm0-7H5v4H9ZM40,4H36V1a1,1,0,0,0-2,0V4H10V1A1,1,0,0,0,8,1V4H4A4,4,0,0,0,0,8V40a4,4,0,0,0,4,4H40a4,4,0,0,0,4-4V8A4,4,0,0,0,40,4Zm2,36a2,2,0,0,1-2,2H4a2,2,0,0,1-2-2V16H42Zm0-26H2V8A2,2,0,0,1,4,6H8V9a1,1,0,0,0,2,0V6H34V9a1,1,0,0,0,2,0V6h4a2,2,0,0,1,2,2ZM15,20H11v4h4Zm6,14H17v4h4Zm-6,0H11v4h4Zm6-7H17v4h4Z"/></g></g></g></svg>